<?xml version="1.0" encoding="UTF-8" standalone="no"?>
<!-- Uploaded to: SVG Repo, www.svgrepo.com, Generator: SVG Repo Mixer Tools -->

<svg
   height="30.000002"
   width="30.000002"
   version="1.1"
   id="Capa_1"
   viewBox="0 0 19.699689 19.699689"
   xml:space="preserve"
   sodipodi:docname="cold_res_icon.svg"
   inkscape:version="1.4.2 (ebf0e94, 2025-05-08)"
   xmlns:inkscape="http://www.inkscape.org/namespaces/inkscape"
   xmlns:sodipodi="http://sodipodi.sourceforge.net/DTD/sodipodi-0.dtd"
   xmlns="http://www.w3.org/2000/svg"
   xmlns:svg="http://www.w3.org/2000/svg"><defs
   id="defs1"><inkscape:path-effect
     effect="envelope"
     id="path-effect7"
     is_visible="true"
     lpeversion="1"
     yy="true"
     xx="true"
     bendpath1="M 3.34,2 18.883727,-3.6517782"
     bendpath2="M 18.855601,-3.7602234 20.66,22"
     bendpath3="M 4.389616,28.418805 20.66,22"
     bendpath4="M 3.22827,1.6573613 4.3989955,28.439495"
     bendpath1-nodetypes="cc"
     bendpath2-nodetypes="cc"
     bendpath3-nodetypes="cc"
     bendpath4-nodetypes="cc" /><inkscape:path-effect
     effect="perspective-envelope"
     up_left_point="3.34,2"
     up_right_point="20.66,2"
     down_left_point="3.34,22"
     down_right_point="20.66,22"
     id="path-effect6"
     is_visible="true"
     lpeversion="1"
     deform_type="perspective"
     horizontal_mirror="false"
     vertical_mirror="false"
     overflow_perspective="false" /><inkscape:path-effect
     effect="envelope"
     id="path-effect5"
     is_visible="true"
     lpeversion="1"
     yy="true"
     xx="true"
     bendpath1="M 2.2242212,1.577759 21,5.5"
     bendpath2="m 21,5.5 1.065813,18.339565"
     bendpath3="M 2.4875955,19.276072 22.028302,23.525057"
     bendpath4="M 2.250588,1.7066067 2.5180412,19.162447"
     bendpath1-nodetypes="cc"
     bendpath2-nodetypes="cc"
     bendpath3-nodetypes="cc"
     bendpath4-nodetypes="cc" /><inkscape:path-effect
     effect="envelope"
     id="path-effect4"
     is_visible="true"
     lpeversion="1"
     yy="true"
     xx="true"
     bendpath1="M 12.602296,9.4310829 17.238211,7.7402913"
     bendpath2="m 17.277531,7.4650462 0.157283,5.8666518"
     bendpath3="M 12.680937,15.101131 17.19889,13.371019"
     bendpath4="m 12.602296,9.4310829 0.07864,5.9846141"
     bendpath1-nodetypes="cc"
     bendpath2-nodetypes="cc"
     bendpath3-nodetypes="cc"
     bendpath4-nodetypes="cc" /><inkscape:path-effect
     effect="perspective-envelope"
     up_left_point="12.602296,9.4310829"
     up_right_point="17.19889,9.4310829"
     down_left_point="12.602296,13.371019"
     down_right_point="17.19889,13.371019"
     id="path-effect3"
     is_visible="true"
     lpeversion="1"
     deform_type="perspective"
     horizontal_mirror="false"
     vertical_mirror="false"
     overflow_perspective="false" /><inkscape:path-effect
     effect="envelope"
     id="path-effect2"
     is_visible="true"
     lpeversion="1"
     yy="true"
     xx="true"
     bendpath1="M 2.9074134,6.5063396 7.6320242,8.1745771"
     bendpath2="M 7.6320242,8.1745771 V 15.015134"
     bendpath3="m 2.8796094,13.096661 4.7524148,1.918473"
     bendpath4="M 2.9074134,6.3395159 2.8518055,13.263485"
     bendpath1-nodetypes="cc"
     bendpath3-nodetypes="cc"
     bendpath4-nodetypes="cc" /></defs><sodipodi:namedview
   id="namedview1"
   pagecolor="#000000"
   bordercolor="#000000"
   borderopacity="0.25"
   inkscape:showpageshadow="2"
   inkscape:pageopacity="0.0"
   inkscape:pagecheckerboard="true"
   inkscape:deskcolor="#d1d1d1"
   inkscape:zoom="16"
   inkscape:cx="2.71875"
   inkscape:cy="18.625"
   inkscape:window-width="1854"
   inkscape:window-height="1014"
   inkscape:window-x="0"
   inkscape:window-y="0"
   inkscape:window-maximized="1"
   inkscape:current-layer="Capa_1" />
<g
   id="g1"
   transform="matrix(0.04160529,0,0,0.03749986,-1.0783259,0)"
   style="fill:#ffffff;fill-opacity:1;stroke:#0026ff;stroke-opacity:1;stroke-width:4.98735454;stroke-dasharray:none">
	<path
   style="fill:#ffffff;fill-opacity:1;stroke:#0026ff;stroke-opacity:1;stroke-width:4.98735454;stroke-dasharray:none"
   d="M 494.23,89.943 265.622,0.528 C 265.24,0.374 264.85,0.414 264.46,0.325 263.858,0.179 263.272,0 262.646,0 c -0.65,0 -1.244,0.179 -1.861,0.333 -0.366,0.089 -0.732,0.057 -1.089,0.195 l -0.309,0.122 v 0 L 31.08,89.943 c -3.804,1.496 -5.706,5.527 -4.804,9.397 -0.219,0.732 -0.358,1.496 -0.358,2.284 v 293.645 c 0,2.999 1.658,5.763 4.3,7.178 l 228.616,121.929 c 0.374,0.195 0.772,0.309 1.162,0.447 0.203,0.073 0.398,0.171 0.61,0.228 0.675,0.171 1.366,0.276 2.057,0.276 0.691,0 1.382,-0.106 2.057,-0.276 0.211,-0.057 0.406,-0.163 0.61,-0.228 0.39,-0.138 0.788,-0.244 1.162,-0.447 L 495.108,402.447 c 2.65,-1.414 4.3,-4.178 4.3,-7.178 V 101.623 c 0,-0.788 -0.146,-1.544 -0.358,-2.284 0.894,-3.861 -1.008,-7.901 -4.82,-9.396 z M 262.655,198.345 49.946,100.022 262.663,16.834 475.372,100.022 Z m -220.488,-84 212.359,98.153 V 503.647 L 42.167,390.399 Z M 483.142,390.399 270.783,503.647 v -291.15 l 212.359,-98.153 z"
   id="path1" />
</g>
<g
   id="g2"
   inkscape:path-effect="#path-effect2"
   transform="translate(-0.38169057,0.67206539)"><path
     d="M 4.4104212,11.217607 C 3.5715744,10.903363 2.8739591,9.9442782 2.8848095,9.0809018 2.8938845,8.3587965 3.9606448,7.2873477 4.2034508,7.0403589 c 0.043939,-0.044647 0.1149633,-0.052221 0.1926721,-0.023306 3e-7,1e-7 0.00227,8.453e-4 0.00227,8.455e-4 0.077701,0.028907 0.1514125,0.09061 0.1995189,0.1697674 0.3118992,0.5149833 1.3206861,2.2825369 1.3187951,3.0541061 -0.00209,0.85309 -0.6682214,1.289781 -1.5070755,0.97554 0,0 7.873e-4,2.95e-4 7.873e-4,2.95e-4 z M 3.7831379,9.3690442 C 3.7839471,9.2621717 3.6994709,9.1431508 3.593419,9.1016151 3.4873795,9.0600842 3.4008639,9.1123037 3.3998317,9.2197815 3.3939616,9.8310062 3.8812203,10.504358 4.4754137,10.728138 4.5805773,10.767744 4.6651962,10.71366 4.6656033,10.6069 4.6660104,10.50014 4.5820688,10.382351 4.4769877,10.342639 4.0926937,10.197408 3.7800746,9.7612802 3.7830446,9.369033 c 0,0 9.33e-5,1.12e-5 9.33e-5,1.12e-5 z"
     id="path1-7"
     style="fill:#ffffff;fill-opacity:1;stroke:#ffffff;stroke-width:0.00831489;stroke-opacity:1"
     inkscape:original-d="m 4.0768256,12.442842 c -0.9065621,0 -1.6420795,-0.695231 -1.6420795,-1.552114 0,-0.737257 1.1135413,-2.2157961 1.4248477,-2.6151499 0.050513,-0.064751 0.130034,-0.101001 0.2155564,-0.101001 h 0.0025 c 0.085522,0 0.1650432,0.0365 0.2155564,0.101001 0.3113064,0.3993538 1.4248202,1.8778929 1.4248202,2.6151499 0,0.856883 -0.7354924,1.552114 -1.642052,1.552114 z m -0.684204,-1.61679 c 0,-0.107501 -0.091524,-0.194002 -0.2053037,-0.194002 -0.1137797,0 -0.2053037,0.0865 -0.2053037,0.194002 0,0.607106 0.5208363,1.099411 1.1631293,1.099411 0.1137797,0 0.2053037,-0.0865 0.2053037,-0.194002 0,-0.107501 -0.091524,-0.194002 -0.2053037,-0.194002 -0.4156587,0 -0.7526219,-0.318503 -0.7526219,-0.711382 z" /><path
     d="M 6.7286114,14.650134 C 6.2314001,14.448379 5.8444069,13.885342 5.8520853,13.384798 c 0.00643,-0.419256 0.6185896,-1.08032 0.7824268,-1.25128 0.02726,-0.02842 0.070147,-0.03387 0.1162209,-0.01643 -2e-7,0 0.00135,5.1e-4 0.00135,5.1e-4 0.046079,0.01744 0.088894,0.05549 0.1161133,0.104426 0.1655747,0.298767 0.7708077,1.418573 0.7704519,1.856191 -4.211e-4,0.518055 -0.409548,0.775008 -0.9105005,0.571731 0,0 4.667e-4,1.9e-4 4.667e-4,1.9e-4 z m -0.353342,-1.096887 c 7.771e-4,-0.06337 -0.048545,-0.133956 -0.1105122,-0.158312 -0.061974,-0.02436 -0.1124633,0.0069 -0.1133127,0.07002 -0.00477,0.354499 0.2717071,0.75726 0.6231394,0.897631 0.062251,0.02486 0.1134145,-0.0061 0.1146344,-0.06951 0.00122,-0.06341 -0.047921,-0.134126 -0.1099743,-0.158678 -0.2269855,-0.08981 -0.4068591,-0.350407 -0.4040292,-0.581162 0,0 5.46e-5,7e-6 5.46e-5,7e-6 z"
     id="path1-7-6"
     style="fill:#ffffff;fill-opacity:1;stroke:#ffffff;stroke-width:0.00525325;stroke-dasharray:none;stroke-opacity:1"
     inkscape:original-d="m 6.6473035,15.015134 c -0.5439373,0 -0.9852477,-0.417139 -0.9852477,-0.931268 0,-0.442355 0.6681248,-1.329478 0.8549086,-1.56909 0.030308,-0.03885 0.07802,-0.0606 0.1293338,-0.0606 h 0.0015 c 0.051314,0 0.099026,0.0219 0.1293339,0.0606 0.1867838,0.239612 0.8548921,1.126735 0.8548921,1.56909 0,0.514129 -0.4412955,0.931268 -0.9852312,0.931268 z M 6.2367811,14.04506 c 0,-0.0645 -0.054914,-0.116401 -0.1231822,-0.116401 -0.068268,0 -0.1231822,0.0519 -0.1231822,0.116401 0,0.364264 0.3125017,0.659646 0.6978775,0.659646 0.068268,0 0.1231822,-0.0519 0.1231822,-0.116401 0,-0.0645 -0.054914,-0.116401 -0.1231822,-0.116401 -0.2493952,0 -0.4515731,-0.191102 -0.4515731,-0.426829 z" /></g><g
   style="fill:none;stroke:#0026ff;stroke-width:2;stroke-linecap:round;stroke-linejoin:round;stroke-opacity:1"
   id="g5"
   transform="matrix(0.31694041,0,0,0.26268255,11.016994,8.1128)"
   inkscape:path-effect="#path-effect7"><path
     d="m 9.3972635,2.4267526 c 0.6164555,0.2183593 1.2413355,0.4363452 1.8620705,0.6497815 0.03437,-0.038549 1.713642,-1.9242063 1.748017,-1.9627554"
     id="path2-3"
     style="stroke:#0026ff;stroke-opacity:1"
     inkscape:original-d="m 10,4 2,1 2,-1" /><path
     d="m 11.108788,-0.82739948 c 0.08206,2.73520228 0.232729,5.72065508 0.379669,8.46953218 0.94733,0.4097625 1.915764,0.8193228 2.875203,1.2151825"
     id="path3-6"
     style="stroke:#0026ff;stroke-opacity:1"
     inkscape:original-d="m 12,2 v 6.5 l 3,1.72" /><path
     d="m 16.730435,2.7216027 c 0.100314,0.9360803 0.205679,1.8977486 0.309092,2.8344815 0.6063,0.3101239 1.217457,0.6165063 1.829772,0.9158745"
     id="path4-0"
     style="stroke:#0026ff;stroke-opacity:1"
     inkscape:original-d="M 17.928,6.268 18.062,8.5 19.928,9.732" /><path
     d="m 19.294243,2.6931432 c -1.571442,2.0082997 -3.310511,4.1967562 -4.899723,6.1924024 0.02869,0.4604408 0.252345,4.0323984 0.281031,4.4928394"
     id="path5"
     style="stroke:#0026ff;stroke-opacity:1"
     inkscape:original-d="m 20.66,7 -5.629,3.25 0.01,3.458" /><path
     d="m 19.271664,12.321315 c -0.544631,0.763938 -1.093239,1.529555 -1.638569,2.288309 -0.01865,-0.877853 0.08234,3.811428 0.06369,2.933575"
     id="path6"
     style="stroke:#0026ff;stroke-opacity:1"
     inkscape:original-d="M 19.928,14.268 18.062,15.5 17.928,17.732" /><path
     d="m 20.194627,15.566536 c -1.827238,-0.660102 -3.728946,-1.400372 -5.525039,-2.130003 -0.557501,0.702825 -2.080603,2.621214 -2.638104,3.324039"
     id="path7"
     style="stroke:#0026ff;stroke-opacity:1"
     inkscape:original-d="m 20.66,17 -5.629,-3.25 -2.99,1.738" /><path
     d="m 14.215225,21.905424 c -0.650533,-0.184699 -1.307751,-0.37351 -1.953647,-0.561953 0.02578,-0.02919 -1.812915,2.055592 -1.787137,2.026398"
     id="path8"
     style="stroke:#0026ff;stroke-opacity:1"
     inkscape:original-d="m 14,20 -2,-1 -2,1" /><path
     d="M 12.521481,25.208081 C 12.324258,22.544898 12.148081,19.507542 11.994392,16.79077 11.030106,16.399012 10.058473,15.994824 9.1048917,15.585022"
     id="path9"
     style="stroke:#0026ff;stroke-opacity:1"
     inkscape:original-d="M 12,22 V 15.5 L 9,13.78" /><path
     d="M 6.6614243,21.811706 C 6.5742047,20.855806 6.4848353,19.858302 6.3992582,18.898363 5.8020324,18.561864 5.2058335,18.216847 4.6121295,17.862114"
     id="path10"
     style="stroke:#0026ff;stroke-opacity:1"
     inkscape:original-d="M 6.072,17.732 5.938,15.5 4.072,14.268" /><path
     d="M 4.093891,21.755611 C 5.7074782,19.767808 7.4785231,17.554306 9.0743769,15.556163 9.1247333,16.505948 8.7839953,10.058435 8.8343518,11.008219"
     id="path11"
     style="stroke:#0026ff;stroke-opacity:1"
     inkscape:original-d="M 3.34,17 8.969,13.75 8.959,10.292" /><path
     d="M 4.3433848,11.806195 C 4.8845825,11.079983 5.4280028,10.346342 5.9681341,9.6141705 5.9637698,8.6250548 5.9602682,7.6162898 5.9593794,6.6320904"
     id="path12"
     style="stroke:#0026ff;stroke-opacity:1"
     inkscape:original-d="M 4.072,9.732 5.938,8.5 6.072,6.268" /><path
     d="M 3.516134,8.3871233 C 5.2691726,9.2999167 7.0724724,10.154547 8.8407044,10.949664 9.0055202,10.743149 11.28707,7.8781321 11.451885,7.6716166"
     id="path13"
     style="stroke:#0026ff;stroke-opacity:1"
     inkscape:original-d="m 3.34,7 5.629,3.25 2.99,-1.738" /></g></svg>
