<?xml version="1.0" encoding="UTF-8" standalone="no"?>
<svg
   viewBox="0 0 24 24"
   version="1.1"
   id="svg1"
   sodipodi:docname="cpu-64-bit.svg"
   inkscape:version="1.4.2 (ebf0e94, 2025-05-08)"
   xmlns:inkscape="http://www.inkscape.org/namespaces/inkscape"
   xmlns:sodipodi="http://sodipodi.sourceforge.net/DTD/sodipodi-0.dtd"
   xmlns="http://www.w3.org/2000/svg"
   xmlns:svg="http://www.w3.org/2000/svg">
  <defs
     id="defs1" />
  <sodipodi:namedview
     id="namedview1"
     pagecolor="#ffffff"
     bordercolor="#000000"
     borderopacity="0.25"
     inkscape:showpageshadow="2"
     inkscape:pageopacity="0.0"
     inkscape:pagecheckerboard="0"
     inkscape:deskcolor="#d1d1d1"
     inkscape:zoom="11.873501"
     inkscape:cx="-11.622519"
     inkscape:cy="9.9380963"
     inkscape:window-width="1854"
     inkscape:window-height="1014"
     inkscape:window-x="0"
     inkscape:window-y="0"
     inkscape:window-maximized="1"
     inkscape:current-layer="svg1" />
  <path
     d="M 9,3 V 5 H 7 C 5.8954305,5 5,5.8954305 5,7 V 9 H 3 v 2 h 2 v 2 H 3 v 2 h 2 v 2 c 0,1.104569 0.8954305,2 2,2 h 2 v 2 h 2 v -2 h 2 v 2 h 2 v -2 h 2 c 1.104569,0 2,-0.895431 2,-2 v -2 h 2 v -2 h -2 v -2 h 2 V 9 H 19 V 7 C 19,5.8954305 18.104569,5 17,5 H 15 V 3 H 13 V 5 H 11 V 3 M 8.08933,15.669975 h 3.5 L 11.5,10.5 h -3 v 0.75 h 2 c 0.552285,0 1,0.447715 1,1 V 14 c 0,0.552285 -0.447715,1 -1,1 H 8 C 7.4477153,15 6.9815324,13.448024 7,14 l 0.08933,2.669975 c 0.018468,0.551976 0.4477153,-1 1,-1 M 12.5,9 H 14 v 2 h 1.5 V 9 L 12.027295,15.521092 17,15 H 15.5 V 12.5 L 14.733251,8.1823821 M 8.5,12.75 V 13.5 H 10 v -0.75"
     id="path1"
     sodipodi:nodetypes="ccssccccccccssccccccccssccccccccsscccccccccccsssssssccccccccccccccc"
     style="fill:#ffffff;fill-opacity:1" />
</svg>
