<?xml version="1.0" encoding="UTF-8" standalone="no"?>
<svg
   viewBox="0 0 640 640"
   version="1.1"
   id="svg1"
   sodipodi:docname="droplet-solid-full.svg"
   inkscape:version="1.4.2 (ebf0e94, 2025-05-08)"
   xmlns:inkscape="http://www.inkscape.org/namespaces/inkscape"
   xmlns:sodipodi="http://sodipodi.sourceforge.net/DTD/sodipodi-0.dtd"
   xmlns="http://www.w3.org/2000/svg"
   xmlns:svg="http://www.w3.org/2000/svg">
  <defs
     id="defs1" />
  <sodipodi:namedview
     id="namedview1"
     pagecolor="#ffffff"
     bordercolor="#000000"
     borderopacity="0.25"
     inkscape:showpageshadow="2"
     inkscape:pageopacity="0.0"
     inkscape:pagecheckerboard="0"
     inkscape:deskcolor="#d1d1d1"
     inkscape:zoom="1.259375"
     inkscape:cx="320"
     inkscape:cy="256.47643"
     inkscape:window-width="1854"
     inkscape:window-height="1014"
     inkscape:window-x="0"
     inkscape:window-y="0"
     inkscape:window-maximized="1"
     inkscape:current-layer="svg1" />
  <!--!Font Awesome Free 7.0.1 by @fontawesome - https://fontawesome.com License - https://fontawesome.com/license/free Copyright 2025 Fonticons, Inc.-->
  <path
     d="M320 576C214 576 128 490 128 384C128 292.8 258.2 109.9 294.6 60.5C300.5 52.5 309.8 48 319.8 48L320.2 48C330.2 48 339.5 52.5 345.4 60.5C381.8 109.9 512 292.8 512 384C512 490 426 576 320 576zM240 376C240 362.7 229.3 352 216 352C202.7 352 192 362.7 192 376C192 451.1 252.9 512 328 512C341.3 512 352 501.3 352 488C352 474.7 341.3 464 328 464C279.4 464 240 424.6 240 376z"
     id="path1"
     style="fill:#ffffff;fill-opacity:1" />
</svg>
