<?xml version="1.0" encoding="UTF-8" standalone="no"?>
<svg
   width="24"
   height="24"
   viewBox="0 0 24 24"
   fill="none"
   stroke="currentColor"
   stroke-width="2"
   stroke-linecap="round"
   stroke-linejoin="round"
   class="lucide lucide-warehouse-icon lucide-warehouse"
   version="1.1"
   id="svg4"
   sodipodi:docname="warehouse.svg"
   inkscape:version="1.4.2 (ebf0e94, 2025-05-08)"
   xmlns:inkscape="http://www.inkscape.org/namespaces/inkscape"
   xmlns:sodipodi="http://sodipodi.sourceforge.net/DTD/sodipodi-0.dtd"
   xmlns="http://www.w3.org/2000/svg"
   xmlns:svg="http://www.w3.org/2000/svg">
  <defs
     id="defs4" />
  <sodipodi:namedview
     id="namedview4"
     pagecolor="#ffffff"
     bordercolor="#000000"
     borderopacity="0.25"
     inkscape:showpageshadow="2"
     inkscape:pageopacity="0.0"
     inkscape:pagecheckerboard="0"
     inkscape:deskcolor="#d1d1d1"
     inkscape:zoom="33.583333"
     inkscape:cx="11.434243"
     inkscape:cy="10.83871"
     inkscape:window-width="1854"
     inkscape:window-height="1014"
     inkscape:window-x="0"
     inkscape:window-y="0"
     inkscape:window-maximized="1"
     inkscape:current-layer="svg4" />
  <path
     d="M18 21V10a1 1 0 0 0-1-1H7a1 1 0 0 0-1 1v11"
     id="path1"
     style="stroke:#ffffff;stroke-opacity:1" />
  <path
     d="M22 19a2 2 0 0 1-2 2H4a2 2 0 0 1-2-2V8a2 2 0 0 1 1.132-1.803l7.95-3.974a2 2 0 0 1 1.837 0l7.948 3.974A2 2 0 0 1 22 8z"
     id="path2"
     style="stroke:#ffffff;stroke-opacity:1" />
  <path
     d="M6 13h12"
     id="path3"
     style="stroke:#ffffff;stroke-opacity:1" />
  <path
     d="M6 17h12"
     id="path4"
     style="stroke:#ffffff;stroke-opacity:1" />
</svg>
