<?xml version="1.0" encoding="UTF-8" standalone="no"?>
<svg
   width="24"
   height="24"
   viewBox="0 0 24 24"
   fill="none"
   stroke="currentColor"
   stroke-width="2"
   stroke-linecap="round"
   stroke-linejoin="round"
   class="lucide lucide-memory-stick-icon lucide-memory-stick"
   version="1.1"
   id="svg9"
   sodipodi:docname="memory-stick.svg"
   inkscape:version="1.4.2 (ebf0e94, 2025-05-08)"
   xmlns:inkscape="http://www.inkscape.org/namespaces/inkscape"
   xmlns:sodipodi="http://sodipodi.sourceforge.net/DTD/sodipodi-0.dtd"
   xmlns="http://www.w3.org/2000/svg"
   xmlns:svg="http://www.w3.org/2000/svg">
  <defs
     id="defs9" />
  <sodipodi:namedview
     id="namedview9"
     pagecolor="#ffffff"
     bordercolor="#000000"
     borderopacity="0.25"
     inkscape:showpageshadow="2"
     inkscape:pageopacity="0.0"
     inkscape:pagecheckerboard="0"
     inkscape:deskcolor="#d1d1d1"
     inkscape:zoom="33.583333"
     inkscape:cx="12"
     inkscape:cy="12"
     inkscape:window-width="1854"
     inkscape:window-height="1014"
     inkscape:window-x="0"
     inkscape:window-y="0"
     inkscape:window-maximized="1"
     inkscape:current-layer="svg9" />
  <path
     d="M6 19v-3"
     id="path1"
     style="stroke:#ffffff;stroke-opacity:1" />
  <path
     d="M10 19v-3"
     id="path2"
     style="stroke:#ffffff;stroke-opacity:1" />
  <path
     d="M14 19v-3"
     id="path3"
     style="stroke:#ffffff;stroke-opacity:1" />
  <path
     d="M18 19v-3"
     id="path4"
     style="stroke:#ffffff;stroke-opacity:1" />
  <path
     d="M8 11V9"
     id="path5"
     style="stroke:#ffffff;stroke-opacity:1" />
  <path
     d="M16 11V9"
     id="path6"
     style="stroke:#ffffff;stroke-opacity:1" />
  <path
     d="M12 11V9"
     id="path7"
     style="stroke:#ffffff;stroke-opacity:1" />
  <path
     d="M2 15h20"
     id="path8"
     style="stroke:#ffffff;stroke-opacity:1" />
  <path
     d="M2 7a2 2 0 0 1 2-2h16a2 2 0 0 1 2 2v1.1a2 2 0 0 0 0 3.837V17a2 2 0 0 1-2 2H4a2 2 0 0 1-2-2v-5.1a2 2 0 0 0 0-3.837Z"
     id="path9"
     style="fill:none;fill-opacity:1;stroke:#ffffff;stroke-opacity:1" />
</svg>
