<?xml version="1.0" encoding="UTF-8" standalone="no"?>
<svg
   width="24"
   height="24"
   viewBox="0 0 24 24"
   fill="none"
   stroke="currentColor"
   stroke-width="2"
   stroke-linecap="round"
   stroke-linejoin="round"
   class="lucide lucide-microchip-icon lucide-microchip"
   version="1.1"
   id="svg11"
   sodipodi:docname="microchip.svg"
   inkscape:version="1.4.2 (ebf0e94, 2025-05-08)"
   xmlns:inkscape="http://www.inkscape.org/namespaces/inkscape"
   xmlns:sodipodi="http://sodipodi.sourceforge.net/DTD/sodipodi-0.dtd"
   xmlns="http://www.w3.org/2000/svg"
   xmlns:svg="http://www.w3.org/2000/svg">
  <defs
     id="defs11" />
  <sodipodi:namedview
     id="namedview11"
     pagecolor="#ffffff"
     bordercolor="#000000"
     borderopacity="0.25"
     inkscape:showpageshadow="2"
     inkscape:pageopacity="0.0"
     inkscape:pagecheckerboard="0"
     inkscape:deskcolor="#d1d1d1"
     inkscape:zoom="33.583333"
     inkscape:cx="12"
     inkscape:cy="12"
     inkscape:window-width="1854"
     inkscape:window-height="1014"
     inkscape:window-x="0"
     inkscape:window-y="0"
     inkscape:window-maximized="1"
     inkscape:current-layer="svg11" />
  <path
     d="M18 12h2"
     id="path1"
     style="stroke:#ffffff;stroke-opacity:1" />
  <path
     d="M18 16h2"
     id="path2"
     style="stroke:#ffffff;stroke-opacity:1" />
  <path
     d="M18 20h2"
     id="path3"
     style="stroke:#ffffff;stroke-opacity:1" />
  <path
     d="M18 4h2"
     id="path4"
     style="stroke:#ffffff;stroke-opacity:1" />
  <path
     d="M18 8h2"
     id="path5"
     style="stroke:#ffffff;stroke-opacity:1" />
  <path
     d="M4 12h2"
     id="path6"
     style="stroke:#ffffff;stroke-opacity:1" />
  <path
     d="M4 16h2"
     id="path7"
     style="stroke:#ffffff;stroke-opacity:1" />
  <path
     d="M4 20h2"
     id="path8"
     style="stroke:#ffffff;stroke-opacity:1" />
  <path
     d="M4 4h2"
     id="path9"
     style="stroke:#ffffff;stroke-opacity:1" />
  <path
     d="M4 8h2"
     id="path10"
     style="stroke:#ffffff;stroke-opacity:1" />
  <path
     d="M8 2a2 2 0 0 0-2 2v16a2 2 0 0 0 2 2h8a2 2 0 0 0 2-2V4a2 2 0 0 0-2-2h-1.5c-.276 0-.494.227-.562.495a2 2 0 0 1-3.876 0C9.994 2.227 9.776 2 9.5 2z"
     id="path11"
     style="stroke:#ffffff;stroke-opacity:1" />
</svg>
