<?xml version="1.0" encoding="UTF-8" standalone="no"?>
<!-- Uploaded to: SVG Repo, www.svgrepo.com, Generator: SVG Repo Mixer Tools -->

<svg
   height="30.000002"
   width="30.000002"
   version="1.1"
   id="Capa_1"
   viewBox="0 0 19.699689 19.699689"
   xml:space="preserve"
   sodipodi:docname="water_level_icon.svg"
   inkscape:version="1.4.2 (ebf0e94, 2025-05-08)"
   xmlns:inkscape="http://www.inkscape.org/namespaces/inkscape"
   xmlns:sodipodi="http://sodipodi.sourceforge.net/DTD/sodipodi-0.dtd"
   xmlns="http://www.w3.org/2000/svg"
   xmlns:svg="http://www.w3.org/2000/svg"><defs
   id="defs1"><inkscape:path-effect
     effect="envelope"
     id="path-effect7"
     is_visible="true"
     lpeversion="1"
     yy="true"
     xx="true"
     bendpath1="M 12.17227,8.3396615 17.586968,6.7154004"
     bendpath2="m 17.580077,6.7145202 -0.01451,6.8638818"
     bendpath3="m 12.092295,15.075185 5.473272,-1.507666"
     bendpath4="m 12.123685,8.3396615 -0.0214,6.7409875"
     bendpath1-nodetypes="cc"
     bendpath2-nodetypes="cc"
     bendpath3-nodetypes="cc"
     bendpath4-nodetypes="cc" /><inkscape:path-effect
     effect="envelope"
     id="path-effect6"
     is_visible="true"
     lpeversion="1"
     yy="true"
     xx="true"
     bendpath1="M 2.2733733,2.4791653 27.559188,5.9334989"
     bendpath2="M 27.573095,5.8618755 17.248708,25.397801"
     bendpath3="M -2.5162262,21.810612 17.301949,25.430487"
     bendpath4="M 2.2421596,2.3750962 -2.5063296,21.891882"
     bendpath1-nodetypes="cc"
     bendpath2-nodetypes="cc"
     bendpath3-nodetypes="cc"
     bendpath4-nodetypes="cc" /><inkscape:path-effect
     effect="perspective-envelope"
     up_left_point="2.2733733,2.4791653"
     up_right_point="21.932487,2.4791653"
     down_left_point="2.2733733,22.669719"
     down_right_point="21.932487,22.669719"
     id="path-effect1"
     is_visible="true"
     lpeversion="1"
     deform_type="perspective"
     horizontal_mirror="false"
     vertical_mirror="false"
     overflow_perspective="false" /><inkscape:path-effect
     effect="envelope"
     id="path-effect5"
     is_visible="true"
     lpeversion="1"
     yy="true"
     xx="true"
     bendpath1="M 2.2242212,1.577759 21,5.5"
     bendpath2="m 21,5.5 1.065813,18.339565"
     bendpath3="M 2.4875955,19.276072 22.028302,23.525057"
     bendpath4="M 2.250588,1.7066067 2.5180412,19.162447"
     bendpath1-nodetypes="cc"
     bendpath2-nodetypes="cc"
     bendpath3-nodetypes="cc"
     bendpath4-nodetypes="cc" /><inkscape:path-effect
     effect="envelope"
     id="path-effect4"
     is_visible="true"
     lpeversion="1"
     yy="true"
     xx="true"
     bendpath1="M 12.602296,9.4310829 17.238211,7.7402913"
     bendpath2="m 17.277531,7.4650462 0.157283,5.8666518"
     bendpath3="M 12.680937,15.101131 17.19889,13.371019"
     bendpath4="m 12.602296,9.4310829 0.07864,5.9846141"
     bendpath1-nodetypes="cc"
     bendpath2-nodetypes="cc"
     bendpath3-nodetypes="cc"
     bendpath4-nodetypes="cc" /><inkscape:path-effect
     effect="perspective-envelope"
     up_left_point="12.602296,9.4310829"
     up_right_point="17.19889,9.4310829"
     down_left_point="12.602296,13.371019"
     down_right_point="17.19889,13.371019"
     id="path-effect3"
     is_visible="true"
     lpeversion="1"
     deform_type="perspective"
     horizontal_mirror="false"
     vertical_mirror="false"
     overflow_perspective="false" /><inkscape:path-effect
     effect="envelope"
     id="path-effect2"
     is_visible="true"
     lpeversion="1"
     yy="true"
     xx="true"
     bendpath1="M 2.9074134,6.5063396 7.6320242,8.1745771"
     bendpath2="M 7.6320242,8.1745771 V 15.015134"
     bendpath3="m 2.8796094,13.096661 4.7524148,1.918473"
     bendpath4="M 2.9074134,6.3395159 2.8518055,13.263485"
     bendpath1-nodetypes="cc"
     bendpath3-nodetypes="cc"
     bendpath4-nodetypes="cc" /></defs><sodipodi:namedview
   id="namedview1"
   pagecolor="#000000"
   bordercolor="#000000"
   borderopacity="0.25"
   inkscape:showpageshadow="2"
   inkscape:pageopacity="0.0"
   inkscape:pagecheckerboard="true"
   inkscape:deskcolor="#d1d1d1"
   inkscape:zoom="22.627417"
   inkscape:cx="8.6620581"
   inkscape:cy="17.456699"
   inkscape:window-width="1854"
   inkscape:window-height="1014"
   inkscape:window-x="0"
   inkscape:window-y="0"
   inkscape:window-maximized="1"
   inkscape:current-layer="Capa_1" />
<g
   id="g1"
   transform="matrix(0.04160529,0,0,0.03749986,-1.0783259,0)"
   style="fill:#ffffff;fill-opacity:1;stroke:#ccccc6;stroke-opacity:1;stroke-width:4.98735454;stroke-dasharray:none">
	<path
   style="fill:#ffffff;fill-opacity:1;stroke:#ccccc6;stroke-opacity:1;stroke-width:4.98735454;stroke-dasharray:none"
   d="M 494.23,89.943 265.622,0.528 C 265.24,0.374 264.85,0.414 264.46,0.325 263.858,0.179 263.272,0 262.646,0 c -0.65,0 -1.244,0.179 -1.861,0.333 -0.366,0.089 -0.732,0.057 -1.089,0.195 l -0.309,0.122 v 0 L 31.08,89.943 c -3.804,1.496 -5.706,5.527 -4.804,9.397 -0.219,0.732 -0.358,1.496 -0.358,2.284 v 293.645 c 0,2.999 1.658,5.763 4.3,7.178 l 228.616,121.929 c 0.374,0.195 0.772,0.309 1.162,0.447 0.203,0.073 0.398,0.171 0.61,0.228 0.675,0.171 1.366,0.276 2.057,0.276 0.691,0 1.382,-0.106 2.057,-0.276 0.211,-0.057 0.406,-0.163 0.61,-0.228 0.39,-0.138 0.788,-0.244 1.162,-0.447 L 495.108,402.447 c 2.65,-1.414 4.3,-4.178 4.3,-7.178 V 101.623 c 0,-0.788 -0.146,-1.544 -0.358,-2.284 0.894,-3.861 -1.008,-7.901 -4.82,-9.396 z M 262.655,198.345 49.946,100.022 262.663,16.834 475.372,100.022 Z m -220.488,-84 212.359,98.153 V 503.647 L 42.167,390.399 Z M 483.142,390.399 270.783,503.647 v -291.15 l 212.359,-98.153 z"
   id="path1" />
</g>
<g
   id="g2"
   inkscape:path-effect="#path-effect2"
   transform="translate(-0.38169057,0.67206539)"><path
     d="M 4.4104212,11.217607 C 3.5715744,10.903363 2.8739591,9.9442782 2.8848095,9.0809018 2.8938845,8.3587965 3.9606448,7.2873477 4.2034508,7.0403589 c 0.043939,-0.044647 0.1149633,-0.052221 0.1926721,-0.023306 3e-7,1e-7 0.00227,8.453e-4 0.00227,8.455e-4 0.077701,0.028907 0.1514125,0.09061 0.1995189,0.1697674 0.3118992,0.5149833 1.3206861,2.2825369 1.3187951,3.0541061 -0.00209,0.85309 -0.6682214,1.289781 -1.5070755,0.97554 0,0 7.873e-4,2.95e-4 7.873e-4,2.95e-4 z M 3.7831379,9.3690442 C 3.7839471,9.2621717 3.6994709,9.1431508 3.593419,9.1016151 3.4873795,9.0600842 3.4008639,9.1123037 3.3998317,9.2197815 3.3939616,9.8310062 3.8812203,10.504358 4.4754137,10.728138 4.5805773,10.767744 4.6651962,10.71366 4.6656033,10.6069 4.6660104,10.50014 4.5820688,10.382351 4.4769877,10.342639 4.0926937,10.197408 3.7800746,9.7612802 3.7830446,9.369033 c 0,0 9.33e-5,1.12e-5 9.33e-5,1.12e-5 z"
     id="path1-7"
     style="fill:#ffffff;fill-opacity:1;stroke:#ffffff;stroke-width:0.00831489;stroke-opacity:1"
     inkscape:original-d="m 4.0768256,12.442842 c -0.9065621,0 -1.6420795,-0.695231 -1.6420795,-1.552114 0,-0.737257 1.1135413,-2.2157961 1.4248477,-2.6151499 0.050513,-0.064751 0.130034,-0.101001 0.2155564,-0.101001 h 0.0025 c 0.085522,0 0.1650432,0.0365 0.2155564,0.101001 0.3113064,0.3993538 1.4248202,1.8778929 1.4248202,2.6151499 0,0.856883 -0.7354924,1.552114 -1.642052,1.552114 z m -0.684204,-1.61679 c 0,-0.107501 -0.091524,-0.194002 -0.2053037,-0.194002 -0.1137797,0 -0.2053037,0.0865 -0.2053037,0.194002 0,0.607106 0.5208363,1.099411 1.1631293,1.099411 0.1137797,0 0.2053037,-0.0865 0.2053037,-0.194002 0,-0.107501 -0.091524,-0.194002 -0.2053037,-0.194002 -0.4156587,0 -0.7526219,-0.318503 -0.7526219,-0.711382 z" /><path
     d="M 6.7286114,14.650134 C 6.2314001,14.448379 5.8444069,13.885342 5.8520853,13.384798 c 0.00643,-0.419256 0.6185896,-1.08032 0.7824268,-1.25128 0.02726,-0.02842 0.070147,-0.03387 0.1162209,-0.01643 -2e-7,0 0.00135,5.1e-4 0.00135,5.1e-4 0.046079,0.01744 0.088894,0.05549 0.1161133,0.104426 0.1655747,0.298767 0.7708077,1.418573 0.7704519,1.856191 -4.211e-4,0.518055 -0.409548,0.775008 -0.9105005,0.571731 0,0 4.667e-4,1.9e-4 4.667e-4,1.9e-4 z m -0.353342,-1.096887 c 7.771e-4,-0.06337 -0.048545,-0.133956 -0.1105122,-0.158312 -0.061974,-0.02436 -0.1124633,0.0069 -0.1133127,0.07002 -0.00477,0.354499 0.2717071,0.75726 0.6231394,0.897631 0.062251,0.02486 0.1134145,-0.0061 0.1146344,-0.06951 0.00122,-0.06341 -0.047921,-0.134126 -0.1099743,-0.158678 -0.2269855,-0.08981 -0.4068591,-0.350407 -0.4040292,-0.581162 0,0 5.46e-5,7e-6 5.46e-5,7e-6 z"
     id="path1-7-6"
     style="fill:#ffffff;fill-opacity:1;stroke:#ffffff;stroke-width:0.00525325;stroke-dasharray:none;stroke-opacity:1"
     inkscape:original-d="m 6.6473035,15.015134 c -0.5439373,0 -0.9852477,-0.417139 -0.9852477,-0.931268 0,-0.442355 0.6681248,-1.329478 0.8549086,-1.56909 0.030308,-0.03885 0.07802,-0.0606 0.1293338,-0.0606 h 0.0015 c 0.051314,0 0.099026,0.0219 0.1293339,0.0606 0.1867838,0.239612 0.8548921,1.126735 0.8548921,1.56909 0,0.514129 -0.4412955,0.931268 -0.9852312,0.931268 z M 6.2367811,14.04506 c 0,-0.0645 -0.054914,-0.116401 -0.1231822,-0.116401 -0.068268,0 -0.1231822,0.0519 -0.1231822,0.116401 0,0.364264 0.3125017,0.659646 0.6978775,0.659646 0.068268,0 0.1231822,-0.0519 0.1231822,-0.116401 0,-0.0645 -0.054914,-0.116401 -0.1231822,-0.116401 -0.2493952,0 -0.4515731,-0.191102 -0.4515731,-0.426829 z" /></g><path
   d="m 17.019012,10.978332 c 0.01318,-0.0037 0.527238,-0.149362 0.540416,-0.153097 0,9.3e-5 2e-6,0.685601 2e-6,0.685508 0.01519,-0.0043 -0.556475,0.156094 -0.541289,0.151837 -0.373758,0.104911 -0.742624,0.08899 -1.084005,-0.03576 -0.680665,0.635264 -1.499604,0.864383 -2.182947,0.618823 -0.346656,0.318094 -0.723716,0.542666 -1.101068,0.649195 0.02584,-0.0073 -0.577568,0.16288 -0.551723,0.155584 3.95e-4,-0.680273 -4e-6,0.0068 3.92e-4,-0.67344 0.01637,-0.0046 0.536887,-0.152194 0.553262,-0.156828 0.383807,-0.108955 0.76679,-0.37642 1.103076,-0.763478 0.66638,0.387542 1.518102,0.147688 2.18177,-0.62437 0.329819,0.198669 0.706307,0.252547 1.082114,0.146026 z m -0.0056,2.05192 c 0.01227,-0.0034 0.532233,-0.146312 0.544505,-0.149689 -9.44e-4,0.227707 -0.0025,0.457122 -0.0049,0.684973 0.01365,-0.0037 -0.560621,0.152527 -0.546972,0.148817 -0.377649,0.102862 -0.747598,0.08466 -1.088189,-0.04228 -0.691895,0.632648 -1.515209,0.854877 -2.187588,0.605147 -0.349012,0.316038 -0.726722,0.538362 -1.100169,0.64207 -0.123644,0.03434 -0.421587,0.117099 -0.545231,0.151436 0.0042,-0.224395 0.007,-0.449729 0.0089,-0.673839 0.04837,-0.0135 0.499277,-0.139384 0.547646,-0.152881 0.380579,-0.106271 0.763562,-0.371252 1.100778,-0.756013 0.659465,0.390411 1.51418,0.158915 2.185244,-0.610321 0.329845,0.200577 0.707248,0.256796 1.085995,0.152577 z M 13.508544,7.9267791 c -0.36628,0.5575251 -0.73904,1.1153911 -1.114274,1.6725186 0.27688,-0.08033 0.553822,-0.1610394 0.828452,-0.2413158 -0.0061,0.6001896 -0.01061,1.0906741 -0.01429,1.6911271 0.01986,-0.0057 0.530038,-0.152415 0.5499,-0.15812 0.0039,-0.622998 0.0078,-1.0711148 0.01322,-1.6937263 0.03738,-0.010964 0.781593,-0.2296982 0.818972,-0.2406621 M 16.21852,7.1145012 c -0.357999,0.561339 -0.719887,1.1221244 -1.084315,1.6819925 0.08746,-0.025769 0.725565,-0.2138779 0.813026,-0.2396474 -0.0023,0.5533901 -0.0058,1.1523667 -0.0081,1.7057567 -0.0083,0.0024 0.549937,-0.158352 0.54161,-0.155954 0.0019,-0.5238735 0.0055,-1.1853928 0.0074,-1.7092667 -0.03109,0.00916 0.841702,-0.2480619 0.810615,-0.2388979"
   id="path1-75"
   style="fill:#cccccc;fill-opacity:0.80000001;stroke-width:0.262663"
   inkscape:path-effect="#path-effect7"
   inkscape:original-d="m 16.938671,11.491612 h 0.525325 v 0.525325 h -0.525325 c -0.362474,0 -0.719695,-0.09193 -1.05065,-0.262662 -0.656656,0.341461 -1.444644,0.341461 -2.1013,0 -0.330954,0.17073 -0.690802,0.262662 -1.05065,0.262662 h -0.525325 v -0.525325 h 0.525325 c 0.365101,0 0.730202,-0.123452 1.05065,-0.349342 0.640897,0.449154 1.460404,0.449154 2.1013,0 0.320448,0.22589 0.68555,0.349342 1.05065,0.349342 m 0,1.575975 h 0.525325 v 0.525325 h -0.525325 c -0.362474,0 -0.719695,-0.09193 -1.05065,-0.262663 -0.656656,0.341462 -1.444644,0.341462 -2.1013,0 -0.330954,0.170731 -0.690802,0.262663 -1.05065,0.262663 h -0.525325 v -0.525325 h 0.525325 c 0.365101,0 0.730202,-0.123452 1.05065,-0.349342 0.640897,0.449154 1.460404,0.449154 2.1013,0 0.320448,0.22589 0.68555,0.349342 1.05065,0.349342 m -3.414612,-4.7279255 -1.05065,1.05065 h 0.787987 v 1.3133125 h 0.525325 V 9.3903115 h 0.787988 m 1.575974,-1.05065 -1.05065,1.05065 h 0.787988 v 1.3133125 h 0.525326 V 9.3903115 h 0.787986" /><circle
   id="path7"
   style="fill:#cccccc;stroke:#ccccc6;stroke-width:0.656656"
   cx="23.071203"
   cy="12.565825"
   r="0.0095935594" /></svg>
