<?xml version="1.0" encoding="UTF-8" standalone="no"?>
<!-- Created with Inkscape (http://www.inkscape.org/) -->

<svg
   version="1.1"
   id="svg9"
   width="1000"
   height="1000"
   viewBox="0 0 1000 1000"
   sodipodi:docname="Resultium ARYAN.svg"
   inkscape:version="1.1.2 (b8e25be833, 2022-02-05)"
   inkscape:export-filename="C:\Users\spitc\OneDrive\Desktop\Resultium.png"
   inkscape:export-xdpi="192"
   inkscape:export-ydpi="192"
   xmlns:inkscape="http://www.inkscape.org/namespaces/inkscape"
   xmlns:sodipodi="http://sodipodi.sourceforge.net/DTD/sodipodi-0.dtd"
   xmlns="http://www.w3.org/2000/svg"
   xmlns:svg="http://www.w3.org/2000/svg">
  <defs
     id="defs13" />
  <sodipodi:namedview
     id="namedview11"
     pagecolor="#ffffff"
     bordercolor="#666666"
     borderopacity="1.0"
     inkscape:pageshadow="2"
     inkscape:pageopacity="0.0"
     inkscape:pagecheckerboard="0"
     showgrid="false"
     inkscape:snap-page="true"
     inkscape:zoom="0.25"
     inkscape:cx="258"
     inkscape:cy="948"
     inkscape:window-width="1920"
     inkscape:window-height="1017"
     inkscape:window-x="-8"
     inkscape:window-y="-8"
     inkscape:window-maximized="1"
     inkscape:current-layer="g15" />
  <g
     inkscape:groupmode="layer"
     inkscape:label="Image"
     id="g15">
    <path
       id="path4102"
       style="fill:#ffffff;fill-opacity:1;stroke-width:2.05297;stroke-miterlimit:4;stroke-dasharray:none"
       d="M 543.37067,0 A 99.171743,97.896935 0 0 0 444.20044,97.895441 99.171743,97.896935 0 0 0 543.37067,195.79288 99.171743,97.896935 0 0 0 642.54292,97.895441 99.171743,97.896935 0 0 0 543.37067,0 Z m 1.46094,52.282213 a 46.207091,45.61312 0 0 1 46.20719,45.613228 46.207091,45.61312 0 0 1 -46.20719,45.613229 46.207091,45.61312 0 0 1 -46.2072,-45.613229 46.207091,45.61312 0 0 1 46.2072,-45.613228 z" />
    <path
       id="rect6423"
       style="stroke-width:0;fill:#ffffff"
       d="M -0.015625,54.885667 V 945.13346 c 76.65607,0.005 161.191565,-0.12316 229.585935,-0.11753 l 0.0117,-83.8294 H 87.775391 L 87.763672,317.18796 H 188.57617 V 221.59042 H 87.763672 V 138.78181 H 465.83204 l 0.0156,-83.896143 H 87.763672 1.609375 Z"
       sodipodi:nodetypes="ccccccccccccccc" />
    <path
       id="path4102-0"
       style="fill:#ffffff;fill-opacity:1;stroke-width:2.05297;stroke-miterlimit:4;stroke-dasharray:none"
       d="M 456.6137,1000 A 99.171743,97.896935 0 0 0 555.78394,902.10456 99.171743,97.896935 0 0 0 456.6137,804.20712 99.171743,97.896935 0 0 0 357.44146,902.10456 99.171743,97.896935 0 0 0 456.6137,1000 Z m -1.46093,-52.28221 a 46.207091,45.61312 0 0 1 -46.20719,-45.61323 46.207091,45.61312 0 0 1 46.20719,-45.61323 46.207091,45.61312 0 0 1 46.2072,45.61323 46.207091,45.61312 0 0 1 -46.2072,45.61323 z" />
    <path
       id="rect6423-1"
       style="stroke-width:0;fill:#ffffff"
       d="M 1000,945.11434 V 54.888671 c -76.65607,-0.005 -161.19156,0.12316 -229.58593,0.11753 l -0.0117,83.807269 h 141.80661 l 0.0117,543.99857 H 811.40821 v 99.00379 H 912.2207 v 79.40236 H 534.15234 l -0.0156,83.89615 H 912.2207 998.375 Z"
       sodipodi:nodetypes="ccccccccccccccc" />
    <path
       id="rect6425"
       style="fill:#ffffff;fill-opacity:1;stroke:none;stroke-width:0;stroke-miterlimit:4;stroke-dasharray:none"
       d="m 279.78906,221.61133 0,560.22656 h 119.31446 l 0,-213.83789 h 96.41601 c 42.16851,69.99484 84.31008,143.81164 126.46875,213.8125 h 96.01367 l 0.0117,-99.55859 H 687.5 L 612.46289,552.28516 c 8.03374,-3.35313 15.65435,-10.81839 22.80273,-14.60938 26.85542,-14.2421 47.31844,-32.61693 61.17774,-56.4414 C 710.30266,457.40986 717.5579,428.71737 718,395 c -0.4421,-33.71737 -7.69734,-62.40987 -21.55664,-86.23438 -13.8593,-23.82449 -34.32232,-42.78133 -61.17774,-57.02343 -26.85541,-14.24211 -59.89522,-26.54977 -99.60156,-28.24414 -85.84965,-1.85883 -170.11739,-1.88672 -255.875,-1.88672 z m 220.23047,101.40039 c 55.47106,-1.2e-4 100.43935,32.06488 100.43945,71.61914 -10e-5,39.55426 -44.96839,71.61926 -100.43945,71.61914 -0.43508,-0.0182 -0.86998,-0.0383 -1.30469,-0.0605 v 0.004 H 399.10352 V 323.01562 h 99.61132 v 0.0566 c 0.43471,-0.0222 0.86961,-0.0424 1.30469,-0.0605 z"
       sodipodi:nodetypes="ccccccccccsscsscccccccccccc" />
  </g>
</svg>
